<svg xmlns="http://www.w3.org/2000/svg" width="19" height="20" viewBox="0 0 19 20" fill="none">
<path d="M18.1128 17.2008L2.30114 1.38908C1.78587 0.873807 1.0674 0.756848 0.696403 1.12785L0.625693 1.19856C0.254694 1.56955 0.371654 2.28802 0.886929 2.8033L16.6986 18.615C17.2139 19.1303 17.9324 19.2472 18.3034 18.8762L18.3741 18.8055C18.7451 18.4345 18.6281 17.716 18.1128 17.2008Z" fill="white"/>
<path d="M16.6986 1.38815L0.886929 17.1998C0.371654 17.7151 0.254695 18.4336 0.625693 18.8046L0.696404 18.8753C1.0674 19.2463 1.78587 19.1293 2.30114 18.6141L18.1128 2.80236C18.6281 2.28709 18.7451 1.56862 18.3741 1.19762L18.3034 1.12691C17.9324 0.755914 17.2139 0.872876 16.6986 1.38815Z" fill="white"/>
</svg>