<svg width="20" height="17" viewBox="0 0 20 17" fill="none" xmlns="http://www.w3.org/2000/svg">
<path d="M2 16.6705C1.45 16.6705 0.979333 16.4745 0.588 16.0826C0.196 15.69 0 15.2183 0 14.6675V2.64948C0 2.09866 0.196 1.62729 0.588 1.23537C0.979333 0.842778 1.45 0.646484 2 0.646484H18C18.55 0.646484 19.021 0.842778 19.413 1.23537C19.8043 1.62729 20 2.09866 20 2.64948V14.6675C20 15.2183 19.8043 15.69 19.413 16.0826C19.021 16.4745 18.55 16.6705 18 16.6705H2ZM10 9.65998L18 4.65248V2.64948L10 7.65698L2 2.64948V4.65248L10 9.65998Z" fill="#0057FF"/>
</svg>
