<svg width="163" height="35" viewBox="0 0 163 35" fill="none" xmlns="http://www.w3.org/2000/svg">
<path d="M24.6406 12.6339C24.6688 12.4662 24.6848 12.2919 24.6848 12.1138C24.6848 10.4237 23.3281 9.05664 21.6536 9.05664C19.9764 9.05664 18.6197 10.4237 18.6197 12.1138C18.6197 12.4216 18.6639 12.7153 18.7475 12.9967C19.1227 14.2529 20.281 15.168 21.6536 15.168C21.7082 15.168 21.7608 15.1652 21.8154 15.1623L24.3896 17.6832C24.6397 17.8727 24.8822 18.083 25.1097 18.3113C25.2921 18.4923 25.4595 18.6846 25.6127 18.8817L25.6203 18.8892C27.7075 21.5333 27.5373 25.3919 25.1088 27.8389C22.4979 30.4725 18.2615 30.4725 15.6506 27.8389L9.96438 22.1093L6.23469 18.3502L10.1026 14.4537C9.69737 13.261 9.48583 11.9963 9.48583 10.6994C9.48583 10.3422 9.50276 9.98694 9.53378 9.63547L0.678223 18.5586L3.35492 21.2529L12.957 30.9282C17.0571 35.0606 23.7042 35.0606 27.8043 30.9282C31.9054 26.7968 31.9054 20.099 27.8043 15.9676L24.6406 12.6339Z" fill="#0057FF"/>
<path d="M16.7029 21.5118C16.6747 21.6804 16.6587 21.8538 16.6587 22.0319C16.6587 23.722 18.0154 25.089 19.6898 25.089C21.3671 25.089 22.7238 23.722 22.7238 22.0319C22.7238 21.725 22.6796 21.4303 22.5959 21.149C22.2199 19.8928 21.0625 18.9776 19.6898 18.9776C19.6353 18.9776 19.5827 18.9805 19.5281 18.9833L16.9539 16.4624C16.7038 16.2729 16.4613 16.0626 16.2337 15.8343C16.0513 15.6534 15.884 15.4611 15.7298 15.264L15.7223 15.2564C13.6351 12.6124 13.8052 8.7538 16.2337 6.30678C18.8446 3.67314 23.0811 3.67314 25.6919 6.30678L31.3782 12.0364L35.1079 15.7955L31.24 19.6929C31.6452 20.8856 31.8567 22.1503 31.8567 23.4473C31.8567 23.8044 31.8398 24.1597 31.8088 24.5111L40.6643 15.588L37.9876 12.8937L28.3865 3.21841C24.2864 -0.913949 17.6393 -0.913949 13.5392 3.21841C9.43811 7.34982 9.43811 14.0476 13.5392 18.179L16.7029 21.5118Z" fill="#0057FF"/>
<path d="M60.9739 20.2812C60.9739 23.8082 59.5354 25.0891 55.6036 25.0891H43.9519C43.9999 24.0025 44.0958 22.9149 44.1672 21.8273H55.3874C57.138 21.8273 57.641 21.4171 57.641 19.9914C57.641 18.5902 57.1615 18.1554 55.4588 18.1554H48.7694C44.8132 18.1554 43.543 16.7296 43.543 13.6858V13.1297C43.543 9.81962 44.862 8.4668 48.8653 8.4668H60.4211C60.3007 9.57804 60.1578 10.6656 60.013 11.7769H48.8663C47.2839 11.7769 46.828 12.2846 46.828 13.5891C46.828 14.8936 47.2839 15.4251 48.8663 15.4251H55.4598C59.5599 15.4251 60.9739 16.7779 60.9739 19.7015V20.2812Z" fill="#0057FF"/>
<path d="M68.5256 25.0881C64.5214 25.0881 63.3706 23.7836 63.3706 19.7005V13.8544C63.3706 9.7713 64.5214 8.4668 68.5256 8.4668H77.2289C81.1607 8.4668 82.3839 9.7713 82.3839 13.8544V19.7005C82.3839 23.7836 81.1607 25.0881 77.2289 25.0881H68.5256ZM79.1468 13.879C79.1468 12.2363 78.6438 11.7532 77.2044 11.7532H68.5256C67.0871 11.7532 66.5832 12.2363 66.5832 13.879V19.7252C66.5832 21.3679 67.0392 21.8273 68.5256 21.8273H77.2044C78.6908 21.8273 79.1468 21.3688 79.1468 19.7252V13.879Z" fill="#0057FF"/>
<path d="M88.4724 18.468V25.0872H85.2354V8.4668H100.723V11.7522H88.4724V15.5691H100.46V18.468H88.4724Z" fill="#0057FF"/>
<path d="M108.611 25.0872V11.7522H102.593V8.4668H117.865V11.7522H111.847V25.0872H108.611Z" fill="#0057FF"/>
<path d="M119.831 25.0872V8.4668H135.679V11.7522H123.068V15.4242H135.32V18.1061H123.068V21.8264H135.679V25.0881H119.831V25.0872Z" fill="#0057FF"/>
<path d="M48.6059 31.0026C48.6059 31.9708 48.211 32.3222 47.1317 32.3222H43.9332C43.9463 32.0238 43.9727 31.7254 43.9924 31.427H47.0724C47.5529 31.427 47.6911 31.3142 47.6911 30.923C47.6911 30.5384 47.5594 30.419 47.0922 30.419H45.256C44.1701 30.419 43.8213 30.0277 43.8213 29.1922V29.0396C43.8213 28.1311 44.1833 27.7598 45.2823 27.7598H48.4545C48.4216 28.0648 48.3821 28.3632 48.3426 28.6683H45.2823C44.848 28.6683 44.7229 28.8075 44.7229 29.1656C44.7229 29.5237 44.848 29.6696 45.2823 29.6696H47.0922C48.2176 29.6696 48.6059 30.041 48.6059 30.8434V31.0026Z" fill="#0057FF"/>
<path d="M61.9452 32.3203C60.8462 32.3203 60.5303 31.9622 60.5303 30.8414V29.2366C60.5303 28.1159 60.8462 27.7578 61.9452 27.7578H64.3342C65.4136 27.7578 65.7492 28.1159 65.7492 29.2366V30.8414C65.7492 31.9622 65.4136 32.3203 64.3342 32.3203H61.9452ZM64.8617 29.2423C64.8617 28.7914 64.7235 28.6587 64.3286 28.6587H61.9462C61.5513 28.6587 61.4131 28.7914 61.4131 29.2423V30.8471C61.4131 31.2981 61.5381 31.4241 61.9462 31.4241H64.3286C64.7366 31.4241 64.8617 31.2981 64.8617 30.8471V29.2423Z" fill="#0057FF"/>
<path d="M77.7993 32.3212V27.7578H78.6878V31.4184H82.0969V32.3203H77.7993V32.3212Z" fill="#0057FF"/>
<path d="M95.2398 32.3203C94.2328 32.3203 93.8774 31.9091 93.8774 30.8746V27.7578H94.7593V30.8746C94.7593 31.2592 94.891 31.425 95.2398 31.425H97.4511C97.7999 31.425 97.9315 31.2592 97.9315 30.8746V27.7578H98.82V30.8746C98.82 31.9091 98.458 32.3203 97.4511 32.3203H95.2398Z" fill="#0057FF"/>
<path d="M112.266 32.3203V28.6597H110.614V27.7578H114.807V28.6597H113.155V32.3203H112.266Z" fill="#0057FF"/>
<path d="M126.639 32.3212V27.7578H127.528V32.3212H126.639Z" fill="#0057FF"/>
<path d="M141.013 32.3203C139.914 32.3203 139.598 31.9622 139.598 30.8414V29.2366C139.598 28.1159 139.914 27.7578 141.013 27.7578H143.402C144.481 27.7578 144.817 28.1159 144.817 29.2366V30.8414C144.817 31.9622 144.481 32.3203 143.402 32.3203H141.013ZM143.929 29.2423C143.929 28.7914 143.791 28.6587 143.396 28.6587H141.014C140.619 28.6587 140.48 28.7914 140.48 29.2423V30.8471C140.48 31.2981 140.606 31.4241 141.014 31.4241H143.396C143.804 31.4241 143.929 31.2981 143.929 30.8471V29.2423Z" fill="#0057FF"/>
<path d="M160.901 32.3212L157.708 28.9591V32.3212H156.859V27.7578H157.814L160.92 31.0612V27.7578H161.776V32.3212H160.901Z" fill="#0057FF"/>
<path d="M147.348 20.1489C147.693 20.452 148.028 20.7466 148.363 21.0422C148.771 21.4022 149.179 21.7603 149.583 22.1241C149.658 22.1904 149.722 22.2094 149.824 22.1923C150.254 22.1184 150.648 22.4339 150.695 22.8744C150.739 23.3026 150.402 23.6901 149.966 23.7138C149.551 23.7365 149.182 23.3935 149.184 22.9672C149.185 22.8308 149.139 22.7484 149.043 22.665C148.712 22.3818 148.382 22.0957 148.064 21.7982C147.949 21.6902 147.883 21.7092 147.775 21.8048C146.569 22.8763 145.358 23.9449 144.144 25.0078C144.072 25.0713 143.958 25.1187 143.863 25.1196C141.678 25.1263 139.493 25.1244 137.308 25.1244C137.254 25.1244 137.199 25.1196 137.1 25.1149C140.914 21.7489 144.698 18.4105 148.495 15.0606C148.35 14.9308 148.22 14.8143 148.089 14.6987C146.586 13.3724 145.082 12.0471 143.58 10.7189C143.485 10.6355 143.392 10.5938 143.263 10.5948C142.632 10.6005 141.999 10.5967 141.366 10.5967C141.312 10.5967 141.257 10.5967 141.183 10.6365C142.847 12.1049 144.511 13.5742 146.191 15.0568C145.911 15.305 145.647 15.5419 145.381 15.7768C144.888 16.2117 144.396 16.6474 143.9 17.0775C143.811 17.1543 143.776 17.2301 143.776 17.3504C143.776 17.7663 143.46 18.0922 143.058 18.1111C142.671 18.1291 142.321 17.8392 142.271 17.4584C142.217 17.0529 142.46 16.6901 142.852 16.602C142.932 16.584 143.026 16.5669 143.102 16.5906C143.247 16.6351 143.334 16.5631 143.428 16.4779C143.702 16.2315 143.98 15.99 144.255 15.7465C144.317 15.6916 144.378 15.6347 144.454 15.5665C142.004 13.4056 139.568 11.256 137.098 9.07618C137.194 9.07145 137.252 9.06671 137.309 9.06671C139.489 9.06671 141.668 9.06482 143.847 9.0705C143.943 9.0705 144.06 9.11124 144.131 9.17376C146.318 11.095 148.5 13.0219 150.682 14.9479C150.72 14.981 150.76 15.0123 150.813 15.0559C147.592 17.8979 144.388 20.7248 141.149 23.583C141.252 23.5887 141.311 23.5944 141.369 23.5944C142.001 23.5944 142.633 23.5991 143.265 23.5896C143.367 23.5878 143.488 23.5442 143.564 23.4769C144.767 22.4254 145.963 21.3672 147.16 20.3109C147.22 20.2559 147.28 20.2057 147.348 20.1489ZM149.929 23.3206C150.141 23.3234 150.31 23.1605 150.313 22.9492C150.316 22.7437 150.145 22.5637 149.942 22.5599C149.744 22.5561 149.564 22.7332 149.558 22.9369C149.552 23.1434 149.721 23.3168 149.929 23.3206Z" fill="#0057FF"/>
<path d="M158.158 23.5806C156.457 22.079 154.794 20.6106 153.116 19.1309C153.193 19.0608 153.254 19.0039 153.317 18.949C154.014 18.3341 154.711 17.7193 155.408 17.1073C155.488 17.0372 155.533 16.9709 155.532 16.8506C155.527 16.3959 155.887 16.051 156.319 16.0756C156.761 16.1012 157.069 16.4603 157.039 16.9188C157.011 17.3404 156.627 17.6549 156.184 17.5933C156.058 17.5763 155.985 17.6141 155.901 17.689C155.56 17.995 155.216 18.2972 154.851 18.6202C157.298 20.7802 159.736 22.9316 162.206 25.1106C162.106 25.1153 162.047 25.121 161.988 25.121C159.814 25.121 157.64 25.12 155.466 25.1238C155.338 25.1238 155.244 25.0869 155.149 25.0026C152.976 23.0813 150.801 21.1639 148.627 19.2445C148.589 19.2114 148.554 19.1754 148.5 19.1242C151.711 16.2916 154.915 13.4647 158.155 10.6056C158.055 10.5999 157.998 10.5943 157.94 10.5943C157.302 10.5933 156.665 10.5895 156.026 10.599C155.93 10.5999 155.816 10.6445 155.743 10.7079C154.537 11.7633 153.336 12.8253 152.134 13.8854C152.079 13.9337 152.024 13.9801 151.958 14.036C151.607 13.7272 151.263 13.4249 150.92 13.1227C150.517 12.7665 150.116 12.4075 149.708 12.057C149.658 12.0134 149.567 11.9888 149.502 11.9982C149.058 12.0627 148.66 11.7642 148.61 11.3161C148.563 10.8898 148.899 10.4986 149.335 10.473C149.763 10.4474 150.127 10.8008 150.123 11.2498C150.122 11.3578 150.154 11.427 150.234 11.4961C150.614 11.8249 150.99 12.1602 151.378 12.5032C151.432 12.4586 151.479 12.4217 151.525 12.381C152.732 11.3171 153.939 10.2532 155.141 9.18554C155.241 9.09649 155.34 9.05859 155.473 9.05859C157.647 9.06238 159.821 9.06144 161.995 9.06144C162.05 9.06144 162.105 9.06144 162.16 9.06144C162.166 9.07375 162.17 9.08512 162.176 9.09744C158.392 12.4359 154.608 15.7753 150.811 19.1252C150.94 19.2408 151.052 19.3431 151.165 19.4435C152.69 20.7887 154.214 22.1349 155.743 23.4754C155.816 23.5389 155.93 23.5825 156.026 23.5844C156.665 23.5939 157.302 23.5901 157.94 23.5891C157.998 23.5901 158.052 23.5853 158.158 23.5806ZM149.365 10.8643C149.156 10.8671 148.991 11.0395 148.995 11.2489C149 11.4563 149.177 11.6307 149.378 11.6259C149.577 11.6212 149.752 11.4383 149.75 11.2366C149.748 11.0291 149.574 10.8614 149.365 10.8643Z" fill="#0057FF"/>
</svg>
