<?xml version="1.0" standalone="no"?>
<!DOCTYPE svg PUBLIC "-//W3C//DTD SVG 20010904//EN"
 "http://www.w3.org/TR/2001/REC-SVG-20010904/DTD/svg10.dtd">
<svg version="1.0" xmlns="http://www.w3.org/2000/svg"
 width="74.000000pt" height="43.000000pt" viewBox="0 0 74.000000 43.000000"
 preserveAspectRatio="xMidYMid meet">
<metadata>
Created by potrace 1.10, written by Peter Selinger 2001-2011
</metadata>
<g transform="translate(0.000000,43.000000) scale(0.100000,-0.100000)"
fill="#000000" stroke="none">
<path d="M247 305 c-62 -75 -75 -178 -27 -217 32 -26 86 -23 115 7 33 32 31
46 -8 70 -41 26 -47 71 -17 122 17 29 18 38 8 44 -23 15 -42 8 -71 -26z m48
-149 c13 -13 27 -21 31 -17 4 3 2 -4 -5 -16 -18 -35 -50 -39 -77 -10 -31 34
-32 90 -1 137 l22 35 3 -53 c2 -39 9 -58 27 -76z"/>
<path d="M457 300 c-69 -82 -72 -196 -6 -224 40 -17 75 -9 99 22 27 33 25 43
-13 67 -40 26 -46 62 -17 117 17 33 19 43 8 49 -23 15 -36 10 -71 -31z m36
-15 c-3 -9 -8 -14 -10 -11 -3 3 -2 9 2 15 9 16 15 13 8 -4z m-17 -48 c1 -12 2
-30 3 -39 0 -9 15 -30 31 -47 l31 -30 -27 -17 c-24 -16 -28 -16 -52 -1 -22 13
-27 24 -29 58 -2 45 22 117 35 105 4 -4 8 -17 8 -29z"/>
</g>
</svg>
