<svg width="32" height="32" viewBox="0 0 32 32" fill="none" xmlns="http://www.w3.org/2000/svg">
<rect width="32" height="32" rx="4" fill="#e1520a"/>
<path d="M23.9485 12.7225C23.9395 12.0507 23.8135 11.3855 23.5762 10.7568C23.3704 10.2265 23.056 9.74494 22.6532 9.34279C22.2504 8.94065 21.768 8.62681 21.2368 8.42133C20.6151 8.18836 19.9584 8.06239 19.2945 8.04879C18.4398 8.01064 18.1688 8 15.9991 8C13.8294 8 13.5513 8 12.7028 8.04879C12.0392 8.06249 11.3828 8.18846 10.7614 8.42133C10.2302 8.62667 9.74769 8.94045 9.34485 9.34262C8.94202 9.74478 8.62771 10.2265 8.42203 10.7568C8.18821 11.377 8.0623 12.0325 8.04976 12.695C8.01155 13.5492 8 13.8197 8 15.9858C8 18.1519 8 18.4287 8.04976 19.2766C8.06308 19.9401 8.18836 20.5947 8.42203 21.2165C8.62806 21.7468 8.9426 22.2283 9.34557 22.6302C9.74853 23.0322 10.2311 23.3459 10.7623 23.5512C11.382 23.7935 12.0385 23.9285 12.7037 23.9503C13.5593 23.9885 13.8303 24 16 24C18.1697 24 18.4478 24 19.2963 23.9503C19.9602 23.9373 20.6169 23.8116 21.2386 23.5787C21.7696 23.373 22.2519 23.059 22.6547 22.6569C23.0575 22.2548 23.3719 21.7733 23.578 21.2432C23.8116 20.6222 23.9369 19.9676 23.9502 19.3033C23.9884 18.4499 24 18.1794 24 16.0124C23.9982 13.8463 23.9982 13.5714 23.9485 12.7225ZM15.9938 20.0821C13.7246 20.0821 11.8863 18.2468 11.8863 15.9814C11.8863 13.7159 13.7246 11.8807 15.9938 11.8807C17.0832 11.8807 18.1279 12.3127 18.8982 13.0818C19.6685 13.8508 20.1013 14.8938 20.1013 15.9814C20.1013 17.0689 19.6685 18.112 18.8982 18.881C18.1279 19.65 17.0832 20.0821 15.9938 20.0821ZM20.2648 12.6852C20.139 12.6853 20.0144 12.6607 19.8981 12.6127C19.7818 12.5647 19.6762 12.4942 19.5872 12.4054C19.4983 12.3166 19.4277 12.2111 19.3796 12.0951C19.3316 11.979 19.3069 11.8546 19.307 11.729C19.307 11.6035 19.3317 11.4792 19.3798 11.3633C19.428 11.2473 19.4985 11.1419 19.5874 11.0532C19.6763 10.9644 19.7818 10.894 19.898 10.846C20.0141 10.798 20.1386 10.7733 20.2643 10.7733C20.39 10.7733 20.5145 10.798 20.6307 10.846C20.7468 10.894 20.8524 10.9644 20.9413 11.0532C21.0302 11.1419 21.1007 11.2473 21.1488 11.3633C21.1969 11.4792 21.2217 11.6035 21.2217 11.729C21.2217 12.2577 20.7934 12.6852 20.2648 12.6852Z" fill="white"/>
<path d="M15.9998 19.2008C17.7671 19.2008 19.1998 17.7681 19.1998 16.0008C19.1998 14.2335 17.7671 12.8008 15.9998 12.8008C14.2325 12.8008 12.7998 14.2335 12.7998 16.0008C12.7998 17.7681 14.2325 19.2008 15.9998 19.2008Z" fill="white"/>
</svg>
