<svg width="14" height="15" viewBox="0 0 14 15" fill="none" xmlns="http://www.w3.org/2000/svg">
<path fill-rule="evenodd" clip-rule="evenodd" d="M5.28665 5.54053H7.76265V6.77386C8.11932 6.06453 9.03398 5.4272 10.408 5.4272C13.042 5.4272 13.6673 6.8392 13.6673 9.42986V14.2279H11.0007V10.0199C11.0007 8.54453 10.644 7.71253 9.73598 7.71253C8.47665 7.71253 7.95332 8.6092 7.95332 10.0192V14.2279H5.28665V5.54053ZM0.713984 14.1145H3.38065V5.4272H0.713984V14.1145ZM3.76265 2.59453C3.76275 2.81805 3.71842 3.03935 3.63224 3.24559C3.54606 3.45182 3.41975 3.63887 3.26065 3.79587C2.93825 4.11628 2.50186 4.29563 2.04732 4.29453C1.59358 4.29423 1.15819 4.11533 0.835318 3.79653C0.676792 3.63901 0.550908 3.45175 0.46488 3.24549C0.378852 3.03922 0.33437 2.81801 0.333984 2.59453C0.333984 2.1432 0.513984 1.7112 0.835984 1.39253C1.15857 1.0733 1.59414 0.894332 2.04798 0.894531C2.50265 0.894531 2.93865 1.07386 3.26065 1.39253C3.58198 1.7112 3.76265 2.1432 3.76265 2.59453Z" fill="white"/>
</svg>
