<svg width="171" height="38" viewBox="0 0 171 38" fill="none" xmlns="http://www.w3.org/2000/svg">
<g filter="url(#filter0_d_111_336)">
<path d="M28.6407 12.6328C28.6689 12.4651 28.6849 12.2908 28.6849 12.1127C28.6849 10.4226 27.3282 9.05554 25.6538 9.05554C23.9765 9.05554 22.6198 10.4226 22.6198 12.1127C22.6198 12.4205 22.664 12.7142 22.7477 12.9956C23.1228 14.2518 24.2811 15.1669 25.6538 15.1669C25.7083 15.1669 25.7609 15.1641 25.8155 15.1612L28.3897 17.6821C28.6398 17.8716 28.8823 18.0819 29.1099 18.3102C29.2923 18.4912 29.4596 18.6835 29.6129 18.8806L29.6204 18.8881C31.7076 21.5322 31.5374 25.3908 29.1089 27.8378C26.498 30.4714 22.2616 30.4714 19.6507 27.8378L13.9645 22.1082L10.2348 18.3491L14.1027 14.4526C13.6975 13.2599 13.486 11.9952 13.486 10.6983C13.486 10.3411 13.5029 9.98584 13.5339 9.63438L4.67834 18.5575L7.35504 21.2518L16.9571 30.9271C21.0572 35.0595 27.7043 35.0595 31.8044 30.9271C35.9055 26.7957 35.9055 20.0979 31.8044 15.9665L28.6407 12.6328Z" fill="white"/>
<path d="M20.7028 21.5113C20.6746 21.68 20.6586 21.8533 20.6586 22.0314C20.6586 23.7215 22.0153 25.0885 23.6897 25.0885C25.367 25.0885 26.7237 23.7215 26.7237 22.0314C26.7237 21.7245 26.6795 21.4299 26.5958 21.1485C26.2197 19.8923 25.0624 18.9772 23.6897 18.9772C23.6352 18.9772 23.5825 18.98 23.528 18.9828L20.9538 16.4619C20.7037 16.2725 20.4611 16.0621 20.2336 15.8338C20.0512 15.6529 19.8839 15.4606 19.7297 15.2635L19.7222 15.2559C17.635 12.6119 17.8051 8.75331 20.2336 6.3063C22.8445 3.67265 27.0809 3.67265 29.6918 6.3063L35.378 12.0359L39.1077 15.795L35.2398 19.6924C35.645 20.8851 35.8566 22.1498 35.8566 23.4468C35.8566 23.8039 35.8397 24.1592 35.8086 24.5107L44.6642 15.5875L41.9875 12.8932L32.3864 3.21792C28.2863 -0.914437 21.6392 -0.914437 17.5391 3.21792C13.438 7.34933 13.438 14.0471 17.5391 18.1785L20.7028 21.5113Z" fill="white"/>
<path d="M64.974 20.2816C64.974 23.8086 63.5355 25.0894 59.6037 25.0894H47.952C48 24.0028 48.0959 22.9153 48.1673 21.8277H59.3874C61.138 21.8277 61.641 21.4175 61.641 19.9917C61.641 18.5906 61.1615 18.1558 59.4589 18.1558H52.7695C48.8132 18.1558 47.543 16.73 47.543 13.6861V13.13C47.543 9.81999 48.8621 8.46716 52.8654 8.46716H64.4211C64.3008 9.57841 64.1579 10.666 64.0131 11.7772H52.8663C51.284 11.7772 50.828 12.285 50.828 13.5895C50.828 14.894 51.284 15.4255 52.8663 15.4255H59.4598C63.5599 15.4255 64.974 16.7783 64.974 19.7018V20.2816Z" fill="white"/>
<path d="M72.5255 25.0885C68.5213 25.0885 67.3705 23.784 67.3705 19.7009V13.8548C67.3705 9.77167 68.5213 8.46716 72.5255 8.46716H81.2287C85.1606 8.46716 86.3837 9.77167 86.3837 13.8548V19.7009C86.3837 23.784 85.1606 25.0885 81.2287 25.0885H72.5255ZM83.1467 13.8794C83.1467 12.2367 82.6437 11.7535 81.2043 11.7535H72.5255C71.087 11.7535 70.5831 12.2367 70.5831 13.8794V19.7255C70.5831 21.3682 71.0391 21.8277 72.5255 21.8277H81.2043C82.6907 21.8277 83.1467 21.3692 83.1467 19.7255V13.8794Z" fill="white"/>
<path d="M92.4724 18.4694V25.0885H89.2354V8.46814H104.723V11.7536H92.4724V15.5705H104.46V18.4694H92.4724Z" fill="white"/>
<path d="M112.611 25.0885V11.7536H106.593V8.46814H121.865V11.7536H115.847V25.0885H112.611Z" fill="white"/>
<path d="M123.831 25.0885V8.46814H139.679V11.7536H127.068V15.4255H139.32V18.1075H127.068V21.8277H139.679V25.0895H123.831V25.0885Z" fill="white"/>
<path d="M52.6059 31.0012C52.6059 31.9694 52.211 32.3209 51.1317 32.3209H47.9332C47.9464 32.0225 47.9727 31.724 47.9925 31.4256H51.0725C51.5529 31.4256 51.6911 31.3129 51.6911 30.9216C51.6911 30.537 51.5595 30.4176 51.0922 30.4176H49.2561C48.1702 30.4176 47.8214 30.0264 47.8214 29.1908V29.0383C47.8214 28.1298 48.1833 27.7584 49.2824 27.7584H52.4546C52.4216 28.0635 52.3822 28.3619 52.3427 28.6669H49.2824C48.848 28.6669 48.723 28.8062 48.723 29.1643C48.723 29.5224 48.848 29.6683 49.2824 29.6683H51.0922C52.2176 29.6683 52.6059 30.0397 52.6059 30.8421V31.0012Z" fill="white"/>
<path d="M65.9452 32.3206C64.8461 32.3206 64.5302 31.9625 64.5302 30.8418V29.237C64.5302 28.1163 64.8461 27.7582 65.9452 27.7582H68.3342C69.4135 27.7582 69.7492 28.1163 69.7492 29.237V30.8418C69.7492 31.9625 69.4135 32.3206 68.3342 32.3206H65.9452ZM68.8616 29.2427C68.8616 28.7917 68.7234 28.6591 68.3285 28.6591H65.9461C65.5512 28.6591 65.413 28.7917 65.413 29.2427V30.8475C65.413 31.2984 65.5381 31.4244 65.9461 31.4244H68.3285C68.7366 31.4244 68.8616 31.2984 68.8616 30.8475V29.2427Z" fill="white"/>
<path d="M81.7994 32.3206V27.7572H82.6879V31.4178H86.097V32.3197H81.7994V32.3206Z" fill="white"/>
<path d="M99.2398 32.3206C98.2329 32.3206 97.8775 31.9095 97.8775 30.875V27.7582H98.7594V30.875C98.7594 31.2596 98.891 31.4254 99.2398 31.4254H101.451C101.8 31.4254 101.932 31.2596 101.932 30.875V27.7582H102.82V30.875C102.82 31.9095 102.458 32.3206 101.451 32.3206H99.2398Z" fill="white"/>
<path d="M116.266 32.3206V28.6601H114.614V27.7582H118.807V28.6601H117.155V32.3206H116.266Z" fill="white"/>
<path d="M130.639 32.3206V27.7572H131.528V32.3206H130.639Z" fill="white"/>
<path d="M145.013 32.3206C143.913 32.3206 143.598 31.9625 143.598 30.8418V29.237C143.598 28.1163 143.913 27.7582 145.013 27.7582H147.402C148.481 27.7582 148.816 28.1163 148.816 29.237V30.8418C148.816 31.9625 148.481 32.3206 147.402 32.3206H145.013ZM147.929 29.2427C147.929 28.7917 147.791 28.6591 147.396 28.6591H145.013C144.619 28.6591 144.48 28.7917 144.48 29.2427V30.8475C144.48 31.2984 144.605 31.4244 145.013 31.4244H147.396C147.804 31.4244 147.929 31.2984 147.929 30.8475V29.2427Z" fill="white"/>
<path d="M164.901 32.3206L161.708 28.9584V32.3206H160.859V27.7572H161.814L164.92 31.0606V27.7572H165.775V32.3206H164.901Z" fill="white"/>
<path d="M151.347 20.1481C151.692 20.4513 152.028 20.7459 152.363 21.0415C152.771 21.4015 153.179 21.7596 153.583 22.1234C153.657 22.1897 153.722 22.2086 153.824 22.1916C154.253 22.1177 154.648 22.4331 154.694 22.8737C154.739 23.3019 154.402 23.6893 153.966 23.713C153.551 23.7358 153.182 23.3928 153.184 22.9665C153.184 22.8301 153.139 22.7477 153.043 22.6643C152.712 22.381 152.382 22.0949 152.064 21.7975C151.949 21.6895 151.883 21.7084 151.775 21.8041C150.569 22.8756 149.358 23.9442 148.144 25.0071C148.072 25.0706 147.958 25.1179 147.863 25.1189C145.678 25.1255 143.493 25.1236 141.308 25.1236C141.254 25.1236 141.199 25.1189 141.099 25.1142C144.914 21.7482 148.698 18.4097 152.494 15.0599C152.35 14.9301 152.22 14.8136 152.089 14.698C150.586 13.3717 149.082 12.0464 147.58 10.7182C147.485 10.6348 147.392 10.5931 147.263 10.5941C146.631 10.5997 145.999 10.596 145.366 10.596C145.311 10.596 145.257 10.596 145.183 10.6357C146.847 12.1041 148.511 13.5735 150.191 15.0561C149.911 15.3043 149.647 15.5411 149.381 15.7761C148.888 16.2109 148.396 16.6467 147.9 17.0768C147.811 17.1535 147.776 17.2293 147.776 17.3496C147.776 17.7655 147.46 18.0914 147.058 18.1104C146.671 18.1284 146.321 17.8385 146.27 17.4576C146.217 17.0522 146.459 16.6893 146.851 16.6012C146.932 16.5832 147.026 16.5662 147.102 16.5899C147.247 16.6344 147.334 16.5624 147.428 16.4771C147.702 16.2308 147.98 15.9892 148.255 15.7458C148.317 15.6908 148.378 15.634 148.454 15.5658C146.004 13.4049 143.568 11.2553 141.098 9.07545C141.194 9.07071 141.252 9.06598 141.309 9.06598C143.488 9.06598 145.668 9.06408 147.847 9.06977C147.943 9.06977 148.06 9.1105 148.131 9.17303C150.318 11.0943 152.5 13.0212 154.682 14.9472C154.72 14.9803 154.76 15.0116 154.813 15.0551C151.592 17.8972 148.388 20.7241 145.149 23.5823C145.252 23.588 145.31 23.5937 145.369 23.5937C146.001 23.5937 146.633 23.5984 147.265 23.5889C147.367 23.587 147.488 23.5434 147.564 23.4762C148.767 22.4246 149.962 21.3664 151.16 20.3101C151.22 20.2552 151.28 20.205 151.347 20.1481ZM153.929 23.3199C154.141 23.3227 154.31 23.1598 154.313 22.9485C154.316 22.7429 154.144 22.5629 153.942 22.5591C153.744 22.5554 153.563 22.7325 153.558 22.9362C153.552 23.1427 153.72 23.3161 153.929 23.3199Z" fill="white"/>
<path d="M162.159 23.5803C160.457 22.0788 158.794 20.6104 157.116 19.1306C157.193 19.0605 157.255 19.0037 157.318 18.9487C158.014 18.3339 158.711 17.7191 159.409 17.1071C159.488 17.037 159.534 16.9707 159.532 16.8503C159.527 16.3956 159.887 16.0508 160.32 16.0754C160.761 16.101 161.069 16.46 161.039 16.9185C161.012 17.3401 160.627 17.6546 160.184 17.5931C160.058 17.576 159.985 17.6139 159.901 17.6887C159.56 17.9947 159.216 18.2969 158.851 18.62C161.298 20.78 163.736 22.9314 166.206 25.1103C166.106 25.1151 166.047 25.1207 165.988 25.1207C163.814 25.1207 161.64 25.1198 159.466 25.1236C159.338 25.1236 159.244 25.0866 159.149 25.0023C156.976 23.0811 154.801 21.1636 152.627 19.2443C152.589 19.2111 152.554 19.1751 152.5 19.124C155.711 16.2914 158.915 13.4645 162.155 10.6054C162.055 10.5997 161.998 10.594 161.94 10.594C161.302 10.5931 160.665 10.5893 160.026 10.5987C159.93 10.5997 159.816 10.6442 159.743 10.7077C158.537 11.763 157.336 12.825 156.134 13.8851C156.079 13.9334 156.024 13.9799 155.958 14.0357C155.607 13.7269 155.263 13.4247 154.92 13.1225C154.517 12.7663 154.116 12.4072 153.708 12.0567C153.658 12.0131 153.567 11.9885 153.502 11.998C153.058 12.0624 152.66 11.764 152.61 11.3159C152.563 10.8896 152.899 10.4983 153.335 10.4728C153.763 10.4472 154.127 10.8005 154.123 11.2496C154.122 11.3576 154.154 11.4267 154.234 11.4959C154.615 11.8246 154.99 12.16 155.378 12.5029C155.432 12.4584 155.479 12.4215 155.526 12.3807C156.732 11.3168 157.939 10.253 159.141 9.18529C159.241 9.09624 159.34 9.05835 159.473 9.05835C161.647 9.06214 163.821 9.06119 165.995 9.06119C166.05 9.06119 166.105 9.06119 166.16 9.06119C166.166 9.07351 166.17 9.08488 166.176 9.09719C162.392 12.4357 158.608 15.7751 154.811 19.1249C154.94 19.2405 155.052 19.3428 155.165 19.4432C156.69 20.7885 158.214 22.1347 159.743 23.4752C159.816 23.5387 159.93 23.5822 160.026 23.5841C160.665 23.5936 161.302 23.5898 161.94 23.5889C161.998 23.5898 162.052 23.5851 162.159 23.5803ZM153.365 10.864C153.156 10.8668 152.991 11.0393 152.996 11.2486C153 11.4561 153.177 11.6304 153.378 11.6257C153.578 11.6209 153.752 11.4381 153.75 11.2363C153.748 11.0288 153.574 10.8612 153.365 10.864Z" fill="white"/>
</g>
<defs>
<filter id="filter0_d_111_336" x="0.678345" y="0.118652" width="169.528" height="41.9077" filterUnits="userSpaceOnUse" color-interpolation-filters="sRGB">
<feFlood flood-opacity="0" result="BackgroundImageFix"/>
<feColorMatrix in="SourceAlpha" type="matrix" values="0 0 0 0 0 0 0 0 0 0 0 0 0 0 0 0 0 0 127 0" result="hardAlpha"/>
<feOffset dy="4"/>
<feGaussianBlur stdDeviation="2"/>
<feComposite in2="hardAlpha" operator="out"/>
<feColorMatrix type="matrix" values="0 0 0 0 0 0 0 0 0 0 0 0 0 0 0 0 0 0 0.25 0"/>
<feBlend mode="normal" in2="BackgroundImageFix" result="effect1_dropShadow_111_336"/>
<feBlend mode="normal" in="SourceGraphic" in2="effect1_dropShadow_111_336" result="shape"/>
</filter>
</defs>
</svg>
