<svg width="1600" height="427" viewBox="0 0 1600 427" fill="none" xmlns="http://www.w3.org/2000/svg">
<rect y="18" width="1600" height="409" fill="url(#paint0_linear_127_252)"/>
<path d="M69.1596 26.6301C40.3424 24.5698 -4 15.7808 -4 15.7808V0H1600V36C1600 36 1432.87 12.0732 1325.4 15.7808C1275.35 17.5077 1247.66 24.4108 1197.62 26.6301C1092.75 31.2818 1033.99 13.748 929.036 15.7808C858.079 17.1551 818.595 25.1729 747.64 26.6301C639.557 28.8498 578.896 8.5948 471.037 15.7808C430.976 18.4498 408.938 25.1583 368.813 26.6301C307.454 28.8809 273.372 15.3658 211.971 15.7808C156.035 16.1589 124.95 30.6189 69.1596 26.6301Z" fill="white"/>
<path d="M1527.98 399.63C1556.74 401.748 1601 410.781 1601 410.781L1601 427L-0.00012207 427L-0.000125305 390C-0.000125305 390 166.815 414.592 274.086 410.781C324.047 409.006 351.684 401.911 401.625 399.63C506.301 394.849 564.948 412.87 669.709 410.781C740.533 409.369 779.944 401.128 850.766 399.63C958.646 397.349 1019.19 418.167 1126.85 410.781C1166.84 408.038 1188.83 401.143 1228.88 399.63C1290.13 397.317 1324.15 411.207 1385.43 410.781C1441.26 410.392 1472.29 395.531 1527.98 399.63Z" fill="white"/>
<defs>
<linearGradient id="paint0_linear_127_252" x1="-3.61421e-05" y1="23.1359" x2="114.865" y2="546.028" gradientUnits="userSpaceOnUse">
<stop stop-color="#2CD4D9"/>
<stop offset="0.635417" stop-color="#554EEE"/>
<stop offset="1" stop-color="#554EEE"/>
</linearGradient>
</defs>
</svg>
