<svg width="272" height="206" viewBox="0 0 272 206" fill="none" xmlns="http://www.w3.org/2000/svg">
<path d="M18.5 205.5C8.56344 188.289 2.49014 169.123 0.701521 149.33C-1.0871 129.538 1.45178 109.593 8.14198 90.8797C14.8322 72.1664 25.5136 55.1328 39.4451 40.9603C53.3766 26.7879 70.2247 15.8161 88.8205 8.80607C107.416 1.79605 127.315 -1.08437 147.135 0.36469C166.955 1.81376 186.223 7.55758 203.602 17.1977C220.98 26.8378 236.053 40.1434 247.775 56.1913C259.497 72.2393 267.588 90.6454 271.485 110.133L244.5 110.133C241.273 93.9971 238.454 83.3775 228.748 70.0897C219.042 56.8018 206.561 45.7847 192.172 37.8026C177.782 29.8205 161.828 25.0646 145.417 23.8648C129.005 22.6649 112.529 25.0499 97.132 30.8543C81.7345 36.6587 67.7841 45.7434 56.2487 57.4783C44.7133 69.2132 35.869 83.3172 30.3295 98.812C24.7899 114.307 22.6877 130.821 24.1687 147.21C25.6497 163.598 30.6784 179.468 38.906 193.719L18.5 205.5Z" fill="url(#paint0_linear_111_407)"/>
<defs>
<linearGradient id="paint0_linear_111_407" x1="80.0323" y1="13.5609" x2="127.691" y2="213.194" gradientUnits="userSpaceOnUse">
<stop stop-color="#2FB2D0"/>
<stop offset="1" stop-color="#7F22F5" stop-opacity="0.88"/>
</linearGradient>
</defs>
</svg>
