<svg width="20" height="20" viewBox="0 0 20 20" fill="none" xmlns="http://www.w3.org/2000/svg">
<path d="M19.9994 14.9201V17.9201C20.0006 18.1986 19.9435 18.4743 19.832 18.7294C19.7204 18.9846 19.5567 19.2137 19.3515 19.402C19.1463 19.5902 18.904 19.7336 18.6402 19.8228C18.3764 19.912 18.0968 19.9452 17.8194 19.9201C14.7423 19.5857 11.7864 18.5342 9.18944 16.8501C6.77327 15.3148 4.72478 13.2663 3.18945 10.8501C1.49942 8.2413 0.447688 5.27109 0.119445 2.1801C0.0944553 1.90356 0.12732 1.62486 0.215945 1.36172C0.304571 1.09859 0.447016 0.856786 0.634211 0.651718C0.821406 0.44665 1.04925 0.282806 1.30324 0.170619C1.55722 0.0584315 1.83179 0.000358432 2.10945 9.69523e-05H5.10945C5.59475 -0.00467949 6.06524 0.167176 6.43321 0.48363C6.80118 0.800084 7.04152 1.23954 7.10944 1.7201C7.23607 2.68016 7.47089 3.62282 7.80945 4.5301C7.94399 4.88802 7.97311 5.27701 7.89335 5.65098C7.8136 6.02494 7.62831 6.36821 7.35944 6.6401L6.08945 7.9101C7.513 10.4136 9.5859 12.4865 12.0894 13.9101L13.3594 12.6401C13.6313 12.3712 13.9746 12.1859 14.3486 12.1062C14.7225 12.0264 15.1115 12.0556 15.4694 12.1901C16.3767 12.5286 17.3194 12.7635 18.2794 12.8901C18.7652 12.9586 19.2088 13.2033 19.526 13.5776C19.8431 13.9519 20.0116 14.4297 19.9994 14.9201Z" fill="#e1520a"/>
</svg>
