<svg width="32" height="32" viewBox="0 0 32 32" fill="none" xmlns="http://www.w3.org/2000/svg">
<rect width="32" height="32" rx="4" fill="#e1520a"/>
<path d="M24.6 9.89789C23.9528 10.2186 23.2575 10.4353 22.5265 10.5333C23.2807 10.0286 23.845 9.23432 24.114 8.29863C23.4054 8.7693 22.6299 9.1006 21.8212 9.27812C21.2773 8.62877 20.557 8.19836 19.772 8.05374C18.987 7.90911 18.1813 8.05834 17.4799 8.47828C16.7785 8.89821 16.2207 9.56535 15.8931 10.3761C15.5655 11.1869 15.4865 12.0959 15.6682 12.9621C14.2325 12.8814 12.8279 12.4641 11.5457 11.7372C10.2634 11.0102 9.13225 9.98991 8.22547 8.74244C7.91542 9.34053 7.73714 10.034 7.73714 10.7725C7.7368 11.4373 7.8832 12.092 8.16337 12.6784C8.44354 13.2648 8.8488 13.7648 9.3432 14.134C8.76983 14.1136 8.2091 13.9403 7.70769 13.6286V13.6806C7.70763 14.6131 7.99606 15.5169 8.52404 16.2386C9.05202 16.9603 9.78702 17.4555 10.6043 17.6402C10.0724 17.8012 9.51477 17.8249 8.97347 17.7096C9.20407 18.5119 9.65325 19.2135 10.2581 19.7162C10.863 20.2188 11.5933 20.4974 12.3468 20.5128C11.0677 21.6357 9.48807 22.2448 7.86194 22.2421C7.57389 22.2422 7.28608 22.2234 7 22.1858C8.65061 23.3726 10.572 24.0024 12.5344 24C19.1772 24 22.8087 17.8474 22.8087 12.5113C22.8087 12.338 22.8048 12.1629 22.7978 11.9895C23.5042 11.4183 24.1139 10.7109 24.5985 9.90049L24.6 9.89789Z" fill="white"/>
</svg>
