<svg width="16" height="13" viewBox="0 0 16 13" fill="none" xmlns="http://www.w3.org/2000/svg">
<path d="M15.7623 1.85226C15.2057 2.09892 14.6077 2.26559 13.979 2.34092C14.6277 1.95279 15.113 1.3419 15.3443 0.622257C14.7349 0.98425 14.0679 1.23905 13.3723 1.37559C12.9046 0.876167 12.285 0.545141 11.6099 0.433906C10.9347 0.322672 10.2417 0.437451 9.63849 0.760426C9.03525 1.0834 8.55552 1.5965 8.27377 2.22006C7.99202 2.84362 7.92402 3.54276 8.08033 4.20892C6.84546 4.14692 5.63742 3.82596 4.53462 3.26686C3.43181 2.70776 2.45889 1.92303 1.679 0.96359C1.41233 1.42359 1.259 1.95692 1.259 2.52492C1.2587 3.03625 1.38462 3.53975 1.62559 3.99075C1.86655 4.44174 2.21511 4.82628 2.64033 5.11026C2.14718 5.09457 1.66492 4.96131 1.23367 4.72159V4.76159C1.23362 5.47875 1.48169 6.17384 1.93579 6.72892C2.38989 7.284 3.02205 7.66488 3.725 7.80692C3.26752 7.93073 2.78789 7.94897 2.32233 7.86026C2.52066 8.47733 2.907 9.01694 3.42724 9.40354C3.94749 9.79014 4.57561 10.0044 5.22367 10.0163C4.12356 10.8799 2.76493 11.3483 1.36633 11.3463C1.11859 11.3463 0.871051 11.3319 0.625 11.3029C2.04465 12.2157 3.69723 12.7001 5.385 12.6983C11.0983 12.6983 14.2217 7.96626 14.2217 3.86226C14.2217 3.72892 14.2183 3.59426 14.2123 3.46092C14.8199 3.02157 15.3443 2.47752 15.761 1.85426L15.7623 1.85226Z" fill="white"/>
</svg>
